<?xml version="1.0" standalone="no"?><!DOCTYPE svg PUBLIC "-//W3C//DTD SVG 1.1//EN" "http://www.w3.org/Graphics/SVG/1.1/DTD/svg11.dtd"><svg class="icon" width="200px" height="200.00px" viewBox="0 0 1024 1024" version="1.1" xmlns="http://www.w3.org/2000/svg"><path fill="white" d="M868 951.8H157.2c-49.6 0-90-40.4-90-90v-172c0-49.6 40.4-90 90-90h70.4c16.6 0 30 13.4 30 30s-13.4 30-30 30h-70.4c-16.5 0-30 13.5-30 30v171.9c0 16.5 13.5 30 30 30H868c16.5 0 30-13.5 30-30V689.8c0-16.5-13.5-30-30-30h-69.4c-16.6 0-30-13.4-30-30s13.4-30 30-30H868c49.6 0 90 40.4 90 90v171.9c0 49.7-40.4 90.1-90 90.1zM465.9 756.5c-20.3 0-37.2-15.2-43.4-20.8-29-26.1-59.3-74.3-79.1-125.7-17.9-46.6-36.3-119-22.4-199.6 8.7-50.4 29.1-98.4 60.7-142.5 14.4-20.1 30.7-39 48.9-56.5l-94.7-94.7c-8.6-8.6-11.1-21.5-6.5-32.7s15.6-18.5 27.7-18.5h403.6c16.6 0 30 13.4 30 30V499c0 12.1-7.3 23.1-18.5 27.7-11.2 4.6-24.1 2.1-32.7-6.5L629.3 409.9c-41.7 27.2-73.3 60.2-93.8 98.3-34.1 63.1-31.3 126.8-29.5 169 0.7 15.1 1.2 27 0.1 37.3-2.9 28.8-19.6 37.7-29.3 40.4-3.7 1.1-7.3 1.6-10.9 1.6z m-36.2-631l65.9 65.9c6 6 9.1 14.2 8.8 22.6s-4.3 16.3-10.8 21.7c-35.4 29.4-97.3 92.4-113.2 184.9-13.7 79.7 11.2 151.6 27.4 187.4 12.8 28.5 26.6 49.8 38.1 64.4-1.9-46.4-2.8-119.1 37-192.7 29.1-53.8 75-98.8 136.3-133.7 11.7-6.7 26.5-4.7 36 4.9l75.8 75.8V125.5H429.7z" /></svg>