<?xml version="1.0" standalone="no"?><!DOCTYPE svg PUBLIC "-//W3C//DTD SVG 1.1//EN" "http://www.w3.org/Graphics/SVG/1.1/DTD/svg11.dtd"><svg class="icon" width="200px" height="200.00px" viewBox="0 0 1024 1024" version="1.1" xmlns="http://www.w3.org/2000/svg"><path fill="white" d="M512.4 523.3c-61.4 0-119.2-23.9-162.6-67.4s-67.4-101.2-67.4-162.6 23.9-119.2 67.4-162.6C393.2 87.3 451 63.3 512.4 63.3c61.4 0 119.2 23.9 162.6 67.4 43.4 43.4 67.4 101.2 67.4 162.6S718.5 412.5 675.1 456c-43.5 43.4-101.2 67.3-162.7 67.3z m0-400c-93.7 0-170 76.3-170 170s76.3 170 170 170 170-76.3 170-170-76.2-170-170-170zM929 959.4H96c-8.8 0-17.2-3.9-22.9-10.6s-8.2-15.6-6.7-24.3c16.3-98.5 70.2-188.6 151.7-253.9 81.8-65.6 186.3-101.7 294.4-101.7 108.1 0 212.6 36.1 294.4 101.7 81.5 65.3 135.4 155.5 151.7 253.9 1.4 8.7-1 17.6-6.7 24.3s-14.1 10.6-22.9 10.6z m-795.7-60h758.3C847.7 743 691.1 628.9 512.4 628.9c-178.6 0-335.2 114.1-379.1 270.5z" /></svg>