<?xml version="1.0" standalone="no"?><!DOCTYPE svg PUBLIC "-//W3C//DTD SVG 1.1//EN" "http://www.w3.org/Graphics/SVG/1.1/DTD/svg11.dtd"><svg class="icon" width="200px" height="200.00px" viewBox="0 0 1024 1024" version="1.1" xmlns="http://www.w3.org/2000/svg"><path fill="white" d="M511.7 698.7c-102.7 0-186.3-83.6-186.3-186.3S409 326.2 511.7 326.2 698 409.7 698 512.4s-83.6 186.3-186.3 186.3z m0-312.5c-69.6 0-126.3 56.6-126.3 126.3S442 638.8 511.7 638.8 638 582.1 638 512.4s-56.6-126.2-126.3-126.2z m70 573.3h-140c-49.6 0-90-40.4-90-90v-33.4c-13.9-6.9-27.3-14.7-40.3-23.3l-28.9 16.7c-20.8 12-45.1 15.2-68.3 9-23.2-6.2-42.6-21.1-54.6-41.9l-70-121.2c-12-20.8-15.2-45.1-9-68.3 6.2-23.2 21.1-42.6 41.9-54.6l29-16.7c-0.5-7.8-0.8-15.5-0.8-23.2s0.3-15.5 0.8-23.2l-29-16.7c-20.8-12-35.7-31.4-41.9-54.6-6.2-23.2-3-47.5 9-68.3l70-121.2c12-20.8 31.4-35.7 54.6-41.9 23.2-6.2 47.5-3 68.3 9l28.9 16.7c12.9-8.6 26.4-16.4 40.3-23.3v-33.4c0-49.6 40.4-90 90-90h140c49.6 0 90 40.4 90 90v33.4c13.9 6.9 27.3 14.7 40.3 23.3l28.9-16.7c20.8-12 45.1-15.2 68.3-9 23.2 6.2 42.6 21.1 54.6 41.9l70 121.2c24.8 43 10 98.1-32.9 122.9l-29 16.7c0.5 7.8 0.8 15.5 0.8 23.2 0 7.7-0.3 15.5-0.8 23.2l29 16.7c43 24.8 57.8 80 32.9 122.9l-70 121.2c-16.7 28.8-47 45-78.1 45-15.3 0-30.7-3.9-44.8-12L712 812.8c-12.9 8.6-26.4 16.4-40.3 23.3v33.4c0 49.6-40.3 90-90 90zM315.3 741.3l15.9 11.9c19.3 14.5 40.3 26.6 62.4 36.1l18.2 7.8v72.4c0 16.5 13.5 30 30 30h140c16.5 0 30-13.5 30-30v-72.4l18.2-7.8c22.1-9.5 43.1-21.6 62.4-36.1l15.9-11.9 62.8 36.2c14.3 8.3 32.7 3.3 41-11l70-121.2c8.3-14.3 3.3-32.7-11-41l-62.7-36.2 2.3-19.6c1.4-12 2.2-24.1 2.2-36.1s-0.7-24.1-2.2-36.1l-2.3-19.6 62.7-36.2c6.9-4 11.9-10.5 14-18.2 2.1-7.7 1-15.8-3-22.8l-70-121.2c-4-6.9-10.5-11.9-18.2-14-7.7-2.1-15.8-1-22.8 3l-62.8 36.2-15.9-11.9c-19.3-14.5-40.3-26.6-62.4-36.1l-18.2-7.8v-72.4c0-16.5-13.5-30-30-30h-140c-16.5 0-30 13.5-30 30v72.4l-18.2 7.8c-22.1 9.5-43.1 21.6-62.4 36.1l-15.9 11.9-62.8-36.2c-6.9-4-15-5.1-22.8-3-7.7 2.1-14.2 7-18.2 14l-70 121.2c-4 6.9-5.1 15-3 22.8 2.1 7.7 7 14.2 14 18.2l62.7 36.2-2.3 19.6c-1.4 12-2.2 24.1-2.2 36.1 0 11.9 0.7 24.1 2.2 36.1l2.3 19.6-62.7 36.2c-6.9 4-11.9 10.5-14 18.2-2.1 7.7-1 15.8 3 22.8l70 121.2c4 6.9 10.5 11.9 18.2 14 7.7 2.1 15.8 1 22.8-3l62.8-36.2z" /></svg>