<?xml version="1.0" standalone="no"?><!DOCTYPE svg PUBLIC "-//W3C//DTD SVG 1.1//EN" "http://www.w3.org/Graphics/SVG/1.1/DTD/svg11.dtd"><svg class="icon" width="200px" height="200.00px" viewBox="0 0 1024 1024" version="1.1" xmlns="http://www.w3.org/2000/svg"><path fill="white" d="M951.6 908.5L778.3 735.3c27.6-31.9 49.9-67.7 66.4-106.8 21.1-49.9 31.8-103 31.8-157.7 0-54.7-10.7-107.7-31.8-157.7-20.4-48.2-49.6-91.5-86.8-128.7-37.2-37.2-80.5-66.4-128.7-86.8-49.9-21.1-103-31.8-157.7-31.8-54.7 0-107.7 10.7-157.7 31.8-48.2 20.4-91.5 49.6-128.7 86.8-37.2 37.2-66.4 80.5-86.8 128.7-21.1 49.9-31.8 103-31.8 157.7 0 54.7 10.7 107.7 31.8 157.7 20.4 48.2 49.6 91.5 86.8 128.7 37.2 37.2 80.5 66.4 128.7 86.8 49.9 21.1 103 31.8 157.7 31.8 54.7 0 107.7-10.7 157.7-31.8 39-16.5 74.8-38.8 106.7-66.3L909.1 951c11.7 11.7 30.7 11.7 42.4 0 11.8-11.7 11.8-30.7 0.1-42.5z m-480.1-92.6c-190.2 0-345-154.8-345-345s154.8-345 345-345 345 154.8 345 345-154.8 345-345 345z" /></svg>