<?xml version="1.0" standalone="no"?><!DOCTYPE svg PUBLIC "-//W3C//DTD SVG 1.1//EN" "http://www.w3.org/Graphics/SVG/1.1/DTD/svg11.dtd"><svg class="icon" width="200px" height="200.00px" viewBox="0 0 1024 1024" version="1.1" xmlns="http://www.w3.org/2000/svg"><path fill="white" d="M511.7 959.6c-57.7 0-113.7-11.3-166.5-33.6-50.9-21.5-96.7-52.4-135.9-91.6s-70.1-85-91.6-135.9C95.3 645.7 84 589.6 84 531.9c0-77.7 21.1-153.8 60.9-220.1 38.7-64.3 93.8-117.6 159.5-154 18.8-10.5 38.6-19.6 58.8-27 15.5-5.8 32.8 2.2 38.5 17.7 5.8 15.5-2.2 32.8-17.7 38.5-17.3 6.4-34.3 14.2-50.5 23.2C216.6 275.1 144 398.4 144 531.9c0 202.7 164.9 367.7 367.7 367.7 202.7 0 367.7-164.9 367.7-367.7 0-133.2-72.3-256.3-188.8-321.3-16.1-9-33.1-16.8-50.4-23.3-15.5-5.8-23.4-23.1-17.6-38.6 5.8-15.5 23.1-23.4 38.6-17.6 20.1 7.5 39.8 16.6 58.6 27.1 65.4 36.5 120.3 89.7 158.9 154 39.7 66.2 60.7 142.2 60.7 219.7 0 57.7-11.3 113.7-33.6 166.5-21.5 50.9-52.4 96.7-91.6 135.9-39.3 39.3-85 70.1-135.9 91.6-52.9 22.4-108.9 33.7-166.6 33.7z m30.1-474.5v-390c0-16.6-13.4-30-30-30s-30 13.4-30 30v390c0 16.6 13.4 30 30 30s30-13.4 30-30z" /></svg>