<?xml version="1.0" standalone="no"?><!DOCTYPE svg PUBLIC "-//W3C//DTD SVG 1.1//EN" "http://www.w3.org/Graphics/SVG/1.1/DTD/svg11.dtd"><svg class="icon" width="200px" height="200.00px" viewBox="0 0 1024 1024" version="1.1" xmlns="http://www.w3.org/2000/svg"><path fill="white" d="M911.2 286.6l-44.3-48.4-103.7-113.3-37-40.5c-11.4-12.4-27.4-19.5-44.3-19.5H189.2c-49.6 0-90 40.4-90 90v713.7c0 49.6 40.4 90 90 90H837c49.6 0 90-40.4 90-90V327.1c-0.1-15-5.7-29.4-15.8-40.5z m-44.3 40.5h-155c-16.6 0-30-13.4-30-30V124.9l185 202.2z m0 541.4c0 16.6-13.4 30-30 30H189.2c-16.6 0-30-13.4-30-30V154.9c0-16.6 13.4-30 30-30h432.7v172.3c0 49.6 40.4 90 90 90h155v481.3zM740.1 753.6H286c-16.6 0-30-13.4-30-30s13.4-30 30-30h454c16.6 0 30 13.4 30 30 0.1 16.6-13.4 30-29.9 30zM740.1 570.9H286c-16.6 0-30-13.4-30-30s13.4-30 30-30h454c16.6 0 30 13.4 30 30 0.1 16.5-13.4 30-29.9 30zM493.2 388.1H286c-16.6 0-30-13.4-30-30s13.4-30 30-30h207.1c16.6 0 30 13.4 30 30 0.1 16.6-13.3 30-29.9 30z" /></svg>